<mxfile host="app.diagrams.net" modified="2023-12-01T07:00:17.953Z" agent="Mozilla/5.0 (Windows NT 10.0; Win64; x64) AppleWebKit/537.36 (KHTML, like Gecko) Chrome/119.0.0.0 Safari/537.36 Edg/119.0.0.0" etag="j_wfIa_lDEm6jmWs-Xnx" version="22.1.5" type="github">
  <diagram name="Page-1" id="ZxhnkCtUmw7BvyLmn_8f">
    <mxGraphModel dx="1869" dy="535" grid="1" gridSize="10" guides="1" tooltips="1" connect="1" arrows="1" fold="1" page="1" pageScale="1" pageWidth="827" pageHeight="1169" math="0" shadow="0">
      <root>
        <mxCell id="0" />
        <mxCell id="1" parent="0" />
        <mxCell id="T0qJar71LzFv2jBb5AW3-1" value="Model" style="html=1;whiteSpace=wrap;" vertex="1" parent="1">
          <mxGeometry y="160" width="110" height="50" as="geometry" />
        </mxCell>
        <mxCell id="T0qJar71LzFv2jBb5AW3-2" value="" style="html=1;whiteSpace=wrap;" vertex="1" parent="1">
          <mxGeometry x="240" y="50" width="410" height="270" as="geometry" />
        </mxCell>
        <mxCell id="T0qJar71LzFv2jBb5AW3-12" style="edgeStyle=orthogonalEdgeStyle;rounded=0;orthogonalLoop=1;jettySize=auto;html=1;" edge="1" parent="1" source="T0qJar71LzFv2jBb5AW3-4" target="T0qJar71LzFv2jBb5AW3-8">
          <mxGeometry relative="1" as="geometry" />
        </mxCell>
        <mxCell id="T0qJar71LzFv2jBb5AW3-4" value="Holman" style="html=1;whiteSpace=wrap;" vertex="1" parent="1">
          <mxGeometry x="390" y="420" width="110" height="50" as="geometry" />
        </mxCell>
        <mxCell id="T0qJar71LzFv2jBb5AW3-6" value="BallbarTraceDocument" style="html=1;whiteSpace=wrap;" vertex="1" parent="1">
          <mxGeometry x="260" y="130" width="190" height="50" as="geometry" />
        </mxCell>
        <mxCell id="T0qJar71LzFv2jBb5AW3-7" value="BallBarTraceRun" style="html=1;whiteSpace=wrap;" vertex="1" parent="1">
          <mxGeometry x="260" y="60" width="110" height="50" as="geometry" />
        </mxCell>
        <mxCell id="T0qJar71LzFv2jBb5AW3-16" style="edgeStyle=orthogonalEdgeStyle;rounded=0;orthogonalLoop=1;jettySize=auto;html=1;entryX=1;entryY=0.5;entryDx=0;entryDy=0;" edge="1" parent="1" source="T0qJar71LzFv2jBb5AW3-8" target="T0qJar71LzFv2jBb5AW3-1">
          <mxGeometry relative="1" as="geometry">
            <Array as="points">
              <mxPoint x="190" y="265" />
              <mxPoint x="190" y="185" />
            </Array>
          </mxGeometry>
        </mxCell>
        <mxCell id="T0qJar71LzFv2jBb5AW3-18" style="edgeStyle=orthogonalEdgeStyle;rounded=0;orthogonalLoop=1;jettySize=auto;html=1;" edge="1" parent="1" source="T0qJar71LzFv2jBb5AW3-8" target="T0qJar71LzFv2jBb5AW3-17">
          <mxGeometry relative="1" as="geometry">
            <Array as="points">
              <mxPoint x="445" y="200" />
              <mxPoint x="560" y="200" />
            </Array>
          </mxGeometry>
        </mxCell>
        <mxCell id="T0qJar71LzFv2jBb5AW3-8" value="BallbarTestDocumentService" style="html=1;whiteSpace=wrap;" vertex="1" parent="1">
          <mxGeometry x="350" y="240" width="190" height="50" as="geometry" />
        </mxCell>
        <mxCell id="T0qJar71LzFv2jBb5AW3-9" value="Trace.Services" style="text;html=1;strokeColor=none;fillColor=none;align=center;verticalAlign=middle;whiteSpace=wrap;rounded=0;" vertex="1" parent="1">
          <mxGeometry x="555" y="290" width="85" height="30" as="geometry" />
        </mxCell>
        <mxCell id="T0qJar71LzFv2jBb5AW3-10" value="" style="html=1;whiteSpace=wrap;" vertex="1" parent="1">
          <mxGeometry x="-210" y="230" width="320" height="170" as="geometry" />
        </mxCell>
        <mxCell id="T0qJar71LzFv2jBb5AW3-13" value="CoreMongoRepository" style="html=1;whiteSpace=wrap;" vertex="1" parent="1">
          <mxGeometry x="-160" y="240" width="170" height="50" as="geometry" />
        </mxCell>
        <mxCell id="T0qJar71LzFv2jBb5AW3-14" style="edgeStyle=orthogonalEdgeStyle;rounded=0;orthogonalLoop=1;jettySize=auto;html=1;" edge="1" parent="1" source="T0qJar71LzFv2jBb5AW3-8" target="T0qJar71LzFv2jBb5AW3-13">
          <mxGeometry relative="1" as="geometry" />
        </mxCell>
        <mxCell id="T0qJar71LzFv2jBb5AW3-15" value="&#xa;&lt;span style=&quot;color: rgb(0, 0, 0); font-family: Helvetica; font-size: 12px; font-style: normal; font-variant-ligatures: normal; font-variant-caps: normal; font-weight: 400; letter-spacing: normal; orphans: 2; text-align: center; text-indent: 0px; text-transform: none; widows: 2; word-spacing: 0px; -webkit-text-stroke-width: 0px; background-color: rgb(251, 251, 251); text-decoration-thickness: initial; text-decoration-style: initial; text-decoration-color: initial; float: none; display: inline !important;&quot;&gt;Core.Persistence&lt;/span&gt;&#xa;&#xa;" style="text;html=1;strokeColor=none;fillColor=none;align=center;verticalAlign=middle;whiteSpace=wrap;rounded=0;" vertex="1" parent="1">
          <mxGeometry x="-20" y="370" width="130" height="40" as="geometry" />
        </mxCell>
        <mxCell id="T0qJar71LzFv2jBb5AW3-17" value="TraceDocumentBuilder" style="html=1;whiteSpace=wrap;" vertex="1" parent="1">
          <mxGeometry x="480" y="60" width="160" height="50" as="geometry" />
        </mxCell>
      </root>
    </mxGraphModel>
  </diagram>
</mxfile>
